<svg xmlns="http://www.w3.org/2000/svg" version="1.1" xmlns:xlink="http://www.w3.org/1999/xlink"
    xmlns:svgjs="http://svgjs.dev/svgjs" width="308.7612359841165" height="304.915625" viewBox="0 0 106.00782394174519 104.68749999999999">
    <rect width="308.7612359841165" height="304.915625" fill="#001f3f"></rect>
    <g transform="matrix(0.75,0,0,0.75,249.090909090909,282.7536437246963)">
        <svg viewBox="0 0 396 247" data-background-color="#001f3f"
            preserveAspectRatio="xMidYMid meet" height="1247" width="2000"
            xmlns="http://www.w3.org/2000/svg" xmlns:xlink="http://www.w3.org/1999/xlink">
            <g id="tight-bounds" transform="matrix(1,0,0,1,0.2400000000000091,-0.09999999999999432)">
                <svg viewBox="0 0 395.52 247.2" height="247.2" width="395.52">
                    <g>
                        <svg></svg>
                    </g>
                    <g>
                        <svg viewBox="0 0 395.52 247.2" height="247.2" width="395.52">
                            <g transform="matrix(1,0,0,1,85.08054932047756,47.215199999999996)">
                                <svg viewBox="0 0 225.35890135904486 152.7696" height="152.7696"
                                    width="225.35890135904486">
                                    <g>
                                        <svg viewBox="0 0 225.35890135904486 152.7696"
                                            height="152.7696" width="225.35890135904486">
                                            <g>
                                                <svg
                                                    viewBox="0 0 244.43135999999998 165.69871821997714"
                                                    height="152.7696" width="225.35890135904486">
                                                    <g
                                                        transform="matrix(1,0,0,1,0,102.40845536283427)">
                                                        <svg
                                                            viewBox="0 0 244.43135999999998 63.29026285714285"
                                                            height="63.29026285714285"
                                                            width="244.43135999999998">
                                                            <g id="textblocktransform">
                                                                <svg
                                                                    viewBox="0 0 244.43135999999998 63.29026285714285"
                                                                    height="63.29026285714285"
                                                                    width="244.43135999999998"
                                                                    id="textblock">
                                                                    <g>
                                                                        <svg
                                                                            viewBox="0 0 244.43135999999998 63.29026285714285"
                                                                            height="63.29026285714285"
                                                                            width="244.43135999999998">
                                                                            <g
                                                                                transform="matrix(1,0,0,1,0,0)">
                                                                                <svg
                                                                                    width="244.43135999999998"
                                                                                    viewBox="3.299999952316284 -35.900001525878906 139.989990234375 36.25"
                                                                                    height="63.29026285714285"
                                                                                    data-palette-color="#00ebff">
                                                                                    <g
                                                                                        class="undefined-text-0"
                                                                                        data-fill-palette-color="primary"
                                                                                        id="text-0">
                                                                                        <path
                                                                                            d="M23.35-8.95L23.35-8.95Q23.35-4.5 20.3-2.08 17.25 0.35 12.45 0.35L12.45 0.35Q7.15 0.35 3.45-1.8L3.45-1.8 3.45-6.15Q7.1-3.4 12.35-3.4L12.35-3.4Q15.5-3.4 17.3-4.8 19.1-6.2 19.1-8.85L19.1-8.85Q19.1-9.95 18.68-10.83 18.25-11.7 17.28-12.43 16.3-13.15 15.43-13.63 14.55-14.1 13.05-14.8L13.05-14.8Q12.75-14.95 12.15-15.2L12.15-15.2Q10-16.15 8.88-16.75 7.75-17.35 6.23-18.53 4.7-19.7 4-21.25 3.3-22.8 3.3-24.85L3.3-24.85Q3.3-29.15 6.38-31.58 9.45-34 14.1-34L14.1-34Q18.45-34 21.5-32.45L21.5-32.45 21.5-28.2Q18.45-30.2 14.2-30.2L14.2-30.2Q11.15-30.2 9.35-28.78 7.55-27.35 7.55-25.05L7.55-25.05Q7.55-23.85 8.03-22.9 8.5-21.95 9.7-21.13 10.9-20.3 11.75-19.88 12.6-19.45 14.4-18.65L14.4-18.65Q16.1-17.9 17-17.48 17.9-17.05 19.33-16.13 20.75-15.2 21.48-14.33 22.2-13.45 22.78-12.03 23.35-10.6 23.35-8.95ZM34-25.35L34 0 30.05 0 30.05-25.35 34-25.35ZM33.85-35.15Q34.6-34.4 34.6-33.3 34.6-32.2 33.85-31.48 33.1-30.75 32-30.75 30.9-30.75 30.17-31.48 29.45-32.2 29.45-33.3 29.45-34.4 30.17-35.15 30.9-35.9 32-35.9 33.1-35.9 33.85-35.15ZM75.4-17.4L75.4 0 71.45 0 71.45-16.4Q71.45-22.15 66.59-22.15L66.59-22.15Q64.2-22.15 62.3-19.98 60.4-17.8 60.4-13.85L60.4-13.85 60.4 0 56.45 0 56.45-16.4Q56.45-22.15 51.6-22.15L51.6-22.15Q49.2-22.15 47.3-19.98 45.4-17.8 45.4-13.85L45.4-13.85 45.4 0 41.5 0 41.5-25.35 45.4-25.35 45.4-21.25Q47.5-25.7 52.55-25.7L52.55-25.7Q58.4-25.7 59.95-20.75L59.95-20.75Q61.05-23.15 63.02-24.43 65-25.7 67.45-25.7L67.45-25.7Q71.4-25.7 73.4-23.45 75.4-21.2 75.4-17.4L75.4-17.4ZM86.29-13.85L86.29 0 82.34 0 82.39-25.35 86.29-25.35 86.29-20.9Q88.29-25.6 93.19-25.6L93.19-25.6Q94.09-25.6 94.59-25.5L94.59-25.5 94.59-21.6Q93.54-21.95 92.44-21.95L92.44-21.95Q89.79-21.95 88.04-19.5 86.29-17.05 86.29-13.85L86.29-13.85ZM106.44-3.05L106.44-3.05Q109.14-3.05 110.74-4.58 112.34-6.1 112.34-8.45L112.34-8.45 112.34-11.7 107.94-11.7Q104.74-11.7 103.14-10.45 101.54-9.2 101.54-7.3 101.54-5.4 102.79-4.23 104.04-3.05 106.44-3.05ZM112.39 0L112.39-3Q110.44 0.25 105.29 0.25L105.29 0.25Q101.74 0.25 99.57-1.85 97.39-3.95 97.39-7.15L97.39-7.15Q97.39-10.8 100.17-12.83 102.94-14.85 107.74-14.85L107.74-14.85 112.34-14.85 112.34-16.15Q112.34-19.15 110.99-20.68 109.64-22.2 106.44-22.2L106.44-22.2Q102.39-22.2 99.24-20.05L99.24-20.05 99.24-24Q102.09-25.75 106.74-25.75L106.74-25.75Q116.29-25.75 116.29-16.05L116.29-16.05 116.29 0 112.39 0ZM143.29-17.45L143.29 0 139.34 0 139.34-16.4Q139.34-19.2 137.91-20.68 136.49-22.15 134.19-22.15L134.19-22.15Q131.34-22.15 129.26-19.95 127.19-17.75 127.19-13.85L127.19-13.85 127.19 0 123.29 0 123.29-25.35 127.19-25.35 127.19-20.95Q129.44-25.7 135.19-25.7L135.19-25.7Q138.89-25.7 141.09-23.45 143.29-21.2 143.29-17.45L143.29-17.45Z"
                                                                                            fill="#00ebff"
                                                                                            data-fill-palette-color="primary"></path>
                                                                                    </g>
                                                                                </svg>
                                                                            </g>
                                                                        </svg>
                                                                    </g>
                                                                </svg>
                                                            </g>
                                                        </svg>
                                                    </g>
                                                    <g
                                                        transform="matrix(1,0,0,1,64.35280060694505,0)">
                                                        <svg
                                                            viewBox="0 0 115.72575878610988 87.46714326857142"
                                                            height="87.46714326857142"
                                                            width="115.72575878610988">
                                                            <g>
                                                                <svg
                                                                    xmlns="http://www.w3.org/2000/svg"
                                                                    xmlns:xlink="http://www.w3.org/1999/xlink"
                                                                    version="1.1" x="0" y="0"
                                                                    viewBox="6.5 18 86 65"
                                                                    enable-background="new 0 0 100 100"
                                                                    xml:space="preserve"
                                                                    height="87.46714326857142"
                                                                    width="115.72575878610988"
                                                                    class="icon-icon-0"
                                                                    data-fill-palette-color="accent"
                                                                    id="icon-0"><g fill="#00ffde" data-fill-palette-color="accent"><path d="M35.845 61.275l-10.72-5.09c-1.209-0.572-1.94-1.463-1.94-2.703v-0.318c0-1.24 0.731-2.131 1.94-2.704l10.72-5.089c0.381-0.191 0.731-0.318 1.177-0.318 1.018-0.031 1.94 0.859 1.94 2.004 0 0.922-0.509 1.559-1.336 1.94l-9.606 4.294 9.606 4.295c0.827 0.381 1.336 1.113 1.336 2.004 0 1.177-0.922 2.004-2.1 1.972C36.513 61.562 36.163 61.435 35.845 61.275z" fill="#00ffde" data-fill-palette-color="accent"></path><path d="M41.889 66.047l12.438-25.988c0.35-0.731 0.922-1.113 1.686-1.113 1.018 0 1.876 0.859 1.876 1.813 0 0.35-0.127 0.7-0.222 0.923L45.229 67.669c-0.35 0.731-0.922 1.113-1.686 1.113-1.018 0-1.876-0.858-1.876-1.813C41.667 66.619 41.793 66.27 41.889 66.047z" fill="#00ffde" data-fill-palette-color="accent"></path><path d="M64.155 45.371l10.72 5.089c1.208 0.573 1.94 1.464 1.94 2.704v0.318c0 1.24-0.731 2.131-1.94 2.703l-10.72 5.09c-0.381 0.191-0.731 0.318-1.177 0.318-1.018 0.031-1.94-0.859-1.94-2.004 0-0.923 0.509-1.559 1.336-1.94l9.606-4.295-9.606-4.294c-0.827-0.381-1.336-1.113-1.336-2.004 0-1.177 0.923-2.004 2.1-1.973C63.487 45.084 63.837 45.212 64.155 45.371z" fill="#00ffde" data-fill-palette-color="accent"></path></g><path d="M92.5 21c0-1.657-1.343-3-3-3h-80c-1.657 0-3 1.343-3 3v59c0 1.657 1.343 3 3 3h80c1.657 0 3-1.343 3-3V21zM26 20.833c1.196 0 2.167 0.97 2.167 2.167s-0.97 2.167-2.167 2.167-2.167-0.97-2.167-2.167S24.804 20.833 26 20.833zM20 20.833c1.196 0 2.167 0.97 2.167 2.167s-0.97 2.167-2.167 2.167-2.167-0.97-2.167-2.167S18.804 20.833 20 20.833zM14 20.833c1.196 0 2.167 0.97 2.167 2.167s-0.97 2.167-2.167 2.167-2.167-0.97-2.167-2.167S12.804 20.833 14 20.833zM88.5 79h-78V29h78V79z" fill="#00ffde" data-fill-palette-color="accent"></path></svg>
                                                            </g>
                                                        </svg>
                                                    </g>
                                                    <g></g>
                                                </svg>
                                            </g>
                                        </svg>
                                    </g>
                                </svg>
                            </g>
                            <g>
                                <path
                                    d="M130.175 33.44A112.679 112.679 0 0 1 265.345 33.44L260.083 33.44A107.417 107.417 0 0 0 135.437 33.44L130.175 33.44M130.175 213.76A112.679 112.679 0 0 0 265.345 213.76L260.083 213.76A107.417 107.417 0 0 1 135.437 213.76L130.175 213.76"
                                    fill="#00ff7e" stroke="transparent"
                                    data-fill-palette-color="tertiary"></path>
                            </g>
                        </svg>
                    </g>
                    <defs></defs>
                </svg>
                <rect width="395.52" height="247.2" fill="none" stroke="none" visibility="hidden"></rect>
            </g>
        </svg>
    </g>
</svg>